<svg xmlns="http://www.w3.org/2000/svg" viewBox="0 0 384 310.41"><g id="Layer_2" data-name="Layer 2"><g id="Layer_1-2" data-name="Layer 1"><path d="M0,257.26V252a12.49,12.49,0,0,0,.63-2.09c3.3-24.63,6-49.35,10-73.86a390.58,390.58,0,0,1,36-111.83c2.87-5.74,6.2-11.56,10.54-16.19C68.71,35.72,82.76,26.54,97.4,18.29A257.29,257.29,0,0,1,137.4.08c2.59,7.09,5.1,13.93,7.68,21C124.88,28.83,105.9,38,88.8,50.9q103.26-29.16,206.42,0c-17.17-13-36.28-22.12-56.31-29.91,2.68-7.27,5.21-14.1,7.76-21,22.94,8.53,44.21,19.12,63.48,33.49,11.28,8.42,21.91,17.38,27.47,31,3.44,8.42,7.63,16.54,11.12,25,19.22,46.25,27.58,95,33,144.41.69,6.31,1.48,12.62,2.23,18.93v4.5c-5.93,6.72-11.24,14.14-17.89,20.05-26.71,23.76-58.91,32.63-93.93,33.08a5.07,5.07,0,0,1-3.41-2.13c-5.93-8.35-11.71-16.81-17.52-25.24-.53-.78-1-1.63-1.65-2.78a221.11,221.11,0,0,0,65.78-29.78l-12.1-18.12c-74.54,44.13-148.32,44.13-222.54-.05-3.88,5.83-7.93,11.9-12.09,18.16,20.44,13.75,42.34,23.31,65.94,29.91-6.81,9.86-13.23,19.24-19.79,28.5a4.66,4.66,0,0,1-3.36,1.55c-4.11,0-8.24-.2-12.34-.56C58.66,306.29,24.3,291.24,0,257.26Zm139.81-66.61v-36.9h-22v36.9Zm104.39-37v37h22v-37Z"/></g></g></svg>