<svg xmlns="http://www.w3.org/2000/svg" viewBox="0 0 409.6 408.91"><g id="Layer_2" data-name="Layer 2"><g id="Layer_1-2" data-name="Layer 1"><path d="M356,408.91H252.8V264.35h60.8l12-72H253V143.75h72.3V72c-23.89,0-47.48,0-71.07,0-41.78.11-73.29,31.58-73.42,73.29-.05,14.24,0,28.48,0,42.71v4.68H133v71.79H180.8V408.91H53.6a16.75,16.75,0,0,0-2.25-.71c-21.22-3.5-36.6-15-45.69-34.31C3,368.12,1.84,361.59,0,355.42V53.59c1-4.1,1.76-8.3,3.11-12.29C11.72,15.85,34.07.11,61.61.1Q197,.06,332.4.09c6.39,0,12.81-.27,19.19.11,23.49,1.39,41,12.46,51.6,33.43,3.11,6.17,4.32,13.28,6.41,20V355.42c-.27,1-.61,2-.79,3-3.68,20.29-14.65,35.33-33.22,44.3C369.49,405.67,362.55,406.9,356,408.91Z"/></g></g></svg>