<svg xmlns="http://www.w3.org/2000/svg" viewBox="0 0 353.3 353.81"><g id="Layer_2" data-name="Layer 2"><g id="Layer_1-2" data-name="Layer 1"><path d="M230.12,353.81H123.63c-2.17-.19-4.33-.49-6.5-.55-14.06-.38-28.09-.93-41.85-4.25-29.31-7.08-51.08-23.68-64-51.11-8-17-10.44-35.26-10.63-53.81C.22,206-.13,167.82.05,129.69.14,111.41.25,93,4.69,75.07c7.73-31.27,26-53.67,56.07-65.89C76.92,2.62,94,.78,111.2.59c36-.38,71.91-.69,107.86-.56,18.87.07,37.85,0,56.43,4,34.32,7.48,58.36,27.13,70.44,60.53,5.8,16,7.18,32.79,7.24,49.65.13,40.79.24,81.58-.09,122.37a237.31,237.31,0,0,1-2.8,34.72c-3.66,23.45-14.2,43.41-32.72,58.69-18.06,14.9-39.41,20.88-62.3,22.42C246.89,353,238.5,353.35,230.12,353.81Zm-53.26-31.28,0-.54c9.33,0,18.67.27,28-.06,20.13-.73,40.41-.47,60.33-3,27.23-3.46,45.6-19.21,52.24-46.3,2.66-10.84,3.55-22.31,3.77-33.52q1-49.24.61-98.51c-.14-17.13-.69-34.37-2.7-51.36-3.36-28.44-21.31-47.8-49.26-53.35-12.23-2.42-24.92-3.19-37.42-3.37q-49.77-.74-99.56-.16c-15.4.17-30.93.73-46.13,3-27,3.95-45.39,21.51-50.85,48.17C33.55,95,32.75,107,32.5,118.8q-.91,42.84-.52,85.72c.22,19.79.72,39.65,2.66,59.32,2,20.26,11.64,36.74,29.8,47.2,11.11,6.41,23.42,9.08,36.06,9.52C126,321.46,151.41,321.9,176.86,322.53Z"/><path d="M85.86,176.82a90.95,90.95,0,0,1,181.89-.12c.19,50.11-40.65,91.06-90.85,91.09A91.1,91.1,0,0,1,85.86,176.82Zm91,58.94a58.92,58.92,0,1,0-58.92-58.83A58.74,58.74,0,0,0,176.83,235.76Z"/><path d="M271.87,61.18a21.18,21.18,0,0,1-1,42.34,21.18,21.18,0,1,1,1-42.34Z"/></g></g></svg>