<svg id="Layer_1" data-name="Layer 1" xmlns="http://www.w3.org/2000/svg" viewBox="0 0 374.47 280.51"><path d="M477.5,226.44c-2.47,7.69-4.85,15.41-7.43,23.07-3.1,9.17-6.43,18.26-9.52,27.44-1.74,5.18-3.06,10.51-4.79,15.7-2.67,8-5.53,16-8.28,24-1.19,3.45-2.36,6.9-3.45,10.37-2.6,8.23-4.88,16.57-7.78,24.69-3.51,9.81-6.77,19.83-11.55,29a40.79,40.79,0,0,1-16.22,16.53c-5.12,2.92-10,6-15.85,7.27-4.61,1-9.24,2.76-13.86,2.77-61.49.19-123,.13-184.49.13-5.81,0-11.75-5.24-11.68-10.25a9.55,9.55,0,0,1,8.86-9.21c1.25-.07,2.5,0,3.75,0,61.12,0,122.24.09,183.36-.07,11.89,0,21.53-5.48,28.53-15,6.09-8.32,8-18.45,11.29-28q4.65-13.56,9.18-27.17c3.86-11.54,7.72-23.07,11.46-34.65,2.51-7.73,4.69-15.57,7.23-23.29,3.87-11.75,7.8-23.48,11.92-35.15,2.32-6.54-4.1-15.85-10.56-16.13-5.31-.22-10.62-.71-15.93-.72q-135.46-.06-270.93,0c-5.13,0-5.13,0-5.13,5.1V399.44c0,5,0,5-4.94,5-3.87,0-7.74-.05-11.6,0-2.05,0-3-.75-2.9-2.85.06-1,0-2,0-3V179.89c0-5.08,0-5.08-5.15-5.08H113.84c-5.39,0-9-2.42-10.41-7-1.27-4,.51-7.83,5-10.91a10.7,10.7,0,0,0,1.51-1.5h38.92c.27.39.46,1,.83,1.17,4.37,2.38,6.11,6,5.94,11-.2,5.47-.05,11-.05,16.45,0,5.07,0,5.07,5.14,5.07q141.6,0,283.22.1a36,36,0,0,1,12.07,2.31c5.88,2.15,11.7,5,14.79,10.88,2.54,4.87,4.46,10.07,6.65,15.12Z" transform="translate(-103.03 -155.37)"/><path d="M290.67,230.85c8.36-1.68,13.48,3.71,17.63,11,6.5,11.33,13.18,22.55,19.7,33.86,4.85,8.43,9.51,17,14.36,25.38,3.66,6.35,7.55,12.56,11.22,18.9,4.67,8.08,9.16,16.27,13.83,24.35,4,6.84.19,16.18-3.52,19.86a17.2,17.2,0,0,1-24.28-.06c-3.11-3.17-5.51-7.11-8-10.87-3.3-5.08-6.37-10.32-9.48-15.52q-3-5-5.81-10.14c-3.48-6.31-6.86-12.68-10.38-19-2.87-5.11-5.9-10.14-8.86-15.2q-6.36-10.87-12.71-21.76c-3-5.16-6.13-10.26-9-15.48a12.86,12.86,0,0,1-1.4-4.75c-.24-2.09.26-4.29-.12-6.34a12.24,12.24,0,0,1,14.32-14.24A20,20,0,0,0,290.67,230.85Z" transform="translate(-103.03 -155.37)"/><path d="M253.75,435.86q-54.24,0-108.48,0c-6.92,0-10.69-5.54-8.13-11.68,1.25-3,4.11-3.14,6.55-4a6.89,6.89,0,0,1,2.23,0q107.73,0,215.46,0c3.22,0,6,.63,8,3.54,1.58,2.29,2.57,4.42,1.1,7.13-1.64,3-3.93,5-7.48,5.08-4.74.08-9.47,0-14.21,0Z" transform="translate(-103.03 -155.37)"/><path d="M266.38,271.3c11.24-.85,17.62,8.89,17.46,18.1-.06,3.78-2.59,7.7-4.57,11.25-6.65,11.93-13.54,23.73-20.37,35.56-4.8,8.3-9.52,16.66-14.5,24.85A17.37,17.37,0,0,1,221,366.5c-8-4.78-10.41-16.21-6.22-23.3q5.55-9.4,10.95-18.91c5.66-10,11.1-20.1,16.91-30a202.43,202.43,0,0,1,12.46-19.23C257.69,271.56,262.19,271,266.38,271.3Z" transform="translate(-103.03 -155.37)"/><path d="M279.41,180.79q-48.26,0-96.52,0c-3.22,0-5.93-.7-8-3.92-3.66-5.76.66-11.46,7-12.47a15.21,15.21,0,0,1,2.24,0q95.39,0,190.79,0a11.15,11.15,0,0,1,8.95,3.93c2.19,2.6,2,5.55.18,8.54a8,8,0,0,1-7.38,4c-17.21,0-34.42,0-51.63,0Z" transform="translate(-103.03 -155.37)"/><path d="M414.13,180.79c-4.11,0-8.22,0-12.32,0-7-.08-11-6.19-7.42-12a10.75,10.75,0,0,1,7.41-4.21c8.05-.54,16.17-.26,24.26-.17,4,.05,8.69,3.91,9.47,7.49.74,3.35-4.33,8.83-8.33,8.9C422.84,180.85,418.48,180.79,414.13,180.79Z" transform="translate(-103.03 -155.37)"/></svg>