<svg xmlns="http://www.w3.org/2000/svg" viewBox="0 0 374.47 280.57"><defs><style>.cls-1{fill:#ff0080;}</style></defs><g id="Layer_2" data-name="Layer 2"><g id="Layer_1-2" data-name="Layer 1"><path class="cls-1" d="M374.47,71C372,78.73,369.62,86.45,367,94.11c-3.1,9.17-6.43,18.26-9.52,27.44-1.74,5.18-3.06,10.51-4.79,15.7-2.67,8-5.53,16-8.28,24-1.19,3.45-2.36,6.9-3.45,10.37-2.6,8.23-4.88,16.57-7.78,24.69-3.51,9.81-6.77,19.83-11.55,29a40.84,40.84,0,0,1-16.22,16.53c-5.12,2.92-10,6-15.85,7.27-4.61,1-9.24,2.76-13.86,2.77-61.49.19-123,.13-184.49.13-5.81,0-11.75-5.24-11.68-10.25a9.55,9.55,0,0,1,8.86-9.21c1.25-.07,2.5,0,3.75,0,61.12,0,122.24.09,183.36-.07,11.89,0,21.53-5.48,28.53-15,6.09-8.32,8-18.45,11.29-28q4.65-13.56,9.18-27.17c3.86-11.54,7.72-23.07,11.46-34.65,2.51-7.73,4.69-15.57,7.23-23.29,3.87-11.75,7.8-23.48,11.92-35.15,2.32-6.54-4.1-15.85-10.56-16.13-5.31-.22-10.62-.71-15.93-.72q-135.47-.06-270.93,0c-5.13,0-5.13,0-5.13,5.1V244c0,5,0,5-4.94,5-3.87,0-7.74,0-11.6,0-2.05,0-3-.75-2.9-2.85.06-1,0-2,0-3V24.49c0-5.08,0-5.08-5.15-5.08H10.81c-5.39,0-9-2.42-10.41-7-1.27-4,.51-7.83,5-10.91A10.7,10.7,0,0,0,6.91,0H45.83c.27.39.46,1,.83,1.17,4.37,2.38,6.11,6,5.94,11-.2,5.47-.05,11-.05,16.45,0,5.07,0,5.07,5.14,5.07q141.6,0,283.22.1A35.82,35.82,0,0,1,353,36.1c5.88,2.15,11.7,5,14.79,10.88,2.54,4.87,4.46,10.07,6.65,15.12Z"/><path class="cls-1" d="M187.64,75.45c8.36-1.68,13.48,3.71,17.63,11,6.5,11.33,13.18,22.55,19.7,33.86,4.85,8.43,9.51,17,14.36,25.38,3.66,6.35,7.55,12.56,11.22,18.9,4.67,8.08,9.16,16.27,13.83,24.35,4,6.84.19,16.18-3.52,19.86a17.2,17.2,0,0,1-24.28-.06c-3.11-3.17-5.51-7.11-8-10.87-3.3-5.08-6.37-10.32-9.48-15.52q-3-5-5.81-10.14c-3.48-6.31-6.86-12.68-10.38-19-2.87-5.11-5.9-10.14-8.86-15.2q-6.36-10.87-12.71-21.76c-3-5.16-6.13-10.26-9-15.48a12.78,12.78,0,0,1-1.4-4.75c-.24-2.09.26-4.29-.12-6.34a12.24,12.24,0,0,1,14.32-14.24A19,19,0,0,0,187.64,75.45Z"/><path class="cls-1" d="M150.72,280.46H42.24c-6.92,0-10.69-5.54-8.13-11.68,1.25-3,4.11-3.14,6.55-4a7,7,0,0,1,2.23,0H258.35c3.22,0,6,.63,8,3.54,1.58,2.29,2.57,4.42,1.1,7.13-1.64,3-3.93,5-7.48,5.08-4.74.08-9.47,0-14.21,0Z"/><path class="cls-1" d="M163.35,115.9c11.24-.85,17.62,8.89,17.46,18.1-.06,3.78-2.59,7.7-4.57,11.25-6.65,11.93-13.54,23.73-20.37,35.56-4.8,8.3-9.52,16.66-14.5,24.85A17.38,17.38,0,0,1,118,211.1c-8-4.78-10.41-16.21-6.22-23.3q5.55-9.41,11-18.91c5.66-10,11.1-20.1,16.91-30a203.71,203.71,0,0,1,12.46-19.23C154.66,116.16,159.16,115.6,163.35,115.9Z"/><path class="cls-1" d="M176.38,25.39H79.86c-3.22,0-5.93-.7-8-3.92C68.2,15.71,72.52,10,78.86,9A14,14,0,0,1,81.1,9H271.89a11.13,11.13,0,0,1,8.95,3.93c2.19,2.6,2,5.55.18,8.54a8,8,0,0,1-7.38,4H222Z"/><path class="cls-1" d="M311.1,25.39H298.78c-7-.08-11-6.19-7.42-12a10.76,10.76,0,0,1,7.41-4.21c8.05-.54,16.17-.26,24.26-.17,4,.05,8.69,3.91,9.47,7.49.74,3.35-4.33,8.83-8.33,8.9C319.81,25.45,315.45,25.39,311.1,25.39Z"/></g></g></svg>