<svg xmlns="http://www.w3.org/2000/svg" viewBox="0 0 313.31 255.3"><g id="Layer_2" data-name="Layer 2"><g id="Layer_1-2" data-name="Layer 1"><path d="M0,226.55c35,3.13,66.06-5.36,94.24-26.5-29.45-2.66-49-17.48-60-45,9.82,1.19,18.9,1.34,28.43-1.17-38.59-9.86-52.11-44.22-50.41-63.84,8.68,4.39,17.69,7.3,28.42,7.56C24.51,85.91,15.26,70.87,12.85,52a62.77,62.77,0,0,1,8.29-40.11C56,52.92,100,75.54,153.37,79.14c-.23-6.48-.78-12.59-.6-18.68.76-26.28,21-51.53,46.55-58,23.89-6.1,44.9-.71,62.85,16.24a4.13,4.13,0,0,0,4.34,1.08,129.93,129.93,0,0,0,35.4-13.43c.7-.4,1.45-.72,2.65-1.3a50,50,0,0,1-10.37,19.59c-4.79,5.46-10.31,10.29-15.4,15.28a129.43,129.43,0,0,0,33.83-9.3l.69.76c-5.18,6.06-10.09,12.38-15.61,18.1-4.45,4.62-9.71,8.45-14.46,12.79A5.78,5.78,0,0,0,281.49,66c-.05,66.39-26.2,119.72-80.24,158.6-22.88,16.47-49,25.34-77,29A189.77,189.77,0,0,1,46.5,248,176.94,176.94,0,0,1,1.35,227.68,17,17,0,0,1,0,226.55Z"/></g></g></svg>