<svg xmlns="http://www.w3.org/2000/svg" viewBox="0 0 302.2 212.11"><g id="Layer_2" data-name="Layer 2"><g id="Layer_1-2" data-name="Layer 1"><path d="M150.36,0c31,1.21,62,2.31,93.07,3.71a167.41,167.41,0,0,1,21.85,2.6c17.5,3.15,28.72,15,32,33.48,4.55,25.32,5.46,50.91,4.6,76.51-.6,17.89-2.32,35.77-4.06,53.6-1.27,13.07-6.58,24.18-18.1,31.61-7,4.53-15,5.84-23,6.69-31.14,3.29-62.41,4-93.67,3.89-31.68-.16-63.35-1.12-95-2.14a269.07,269.07,0,0,1-30.34-3.1c-17.24-2.53-29-14.37-32.57-32.16S.76,138.89.24,120.86a456.4,456.4,0,0,1,3.05-71A129.14,129.14,0,0,1,6.2,34.12c4.08-15.83,17-26.48,34.14-28.63,29.53-3.7,59.22-4,88.9-4.51,7-.12,14.06,0,21.09,0ZM121.21,61.35V151.7l78.43-45.18Z"/></g></g></svg>